<svg width="161" height="63" viewBox="0 0 161 63" fill="none" xmlns="http://www.w3.org/2000/svg">
<rect width="161" height="63" rx="31.5" fill="#45D700"/>
<path d="M45.976 16.704V20.556H64.336V16.704H45.976ZM47.056 33.84V37.692H63.22V33.84H47.056ZM53.032 30.348V44.568L57.316 43.92V30.348H53.032ZM45.58 43.092L46.228 47.412C51.16 46.8 58.072 45.9 64.516 45.036L64.408 41.004C57.676 41.796 50.368 42.66 45.58 43.092ZM45.904 25.992L46.156 29.988C50.476 29.808 56.488 29.556 62.212 29.232L62.32 25.524C56.308 25.74 50.044 25.92 45.904 25.992ZM56.956 22.86C58.936 25.416 61.132 28.908 61.96 31.14L65.38 29.196C64.48 26.928 62.176 23.616 60.16 21.168L56.956 22.86ZM51.088 19.044C50.512 21.708 49.324 25.416 48.28 27.792L51.916 28.764C53.104 26.532 54.508 23.076 55.768 20.016L51.088 19.044ZM65.668 18.828V39.204H69.808V18.828H65.668ZM73.876 15.444V43.056C73.876 43.704 73.66 43.884 73.012 43.92C72.292 43.92 70.096 43.956 67.936 43.848C68.548 45.072 69.16 47.016 69.34 48.24C72.4 48.24 74.74 48.096 76.18 47.412C77.62 46.728 78.088 45.54 78.088 43.092V15.444H73.876ZM84.136 17.928V21.312H113.008V17.928H84.136ZM85.936 22.86V25.956H111.136V22.86H85.936ZM92.344 36.648V39.06H108.616V36.648H92.344ZM92.344 40.356V42.732H108.616V40.356H92.344ZM92.272 44.064V47.16H109.084V44.064H92.272ZM82.516 27.468V30.852H114.412V27.468H82.516ZM96.196 20.412V30.168H100.66V20.412H96.196ZM88.636 15.588C89.536 16.704 90.436 18.324 90.796 19.368L94.756 17.928C94.36 16.848 93.424 15.408 92.452 14.364L88.636 15.588ZM104.188 14.328C103.756 15.372 102.928 16.848 102.28 17.892L105.952 19.044C106.708 18.18 107.788 16.92 108.904 15.516L104.188 14.328ZM90.112 29.088C88.456 34.02 85.252 38.304 81.184 40.896C82.084 41.616 83.74 43.272 84.388 44.136C88.672 41.004 92.308 36 94.396 30.132L90.112 29.088ZM89.932 32.292V48.204H94.252V35.388H106.816V48.168H111.352V32.292H89.932Z" fill="white"/>
</svg>
