<svg width="75" height="75" viewBox="0 0 75 75" fill="none" xmlns="http://www.w3.org/2000/svg">
<circle cx="37.5" cy="37.5" r="37.5" fill="#FF8282"/>
<g clip-path="url(#clip0_168_6)">
<path d="M8.45856 36.2651C9.86155 34.5388 11.3303 32.9675 12.8524 31.5552C19.7353 25.1708 27.9079 21.7601 36.3335 21.5888C39.4837 21.5247 42.6642 21.9142 45.8198 22.7711L42.985 25.6601C40.7854 25.2119 38.583 25.0123 36.4002 25.0568C28.8086 25.2114 21.4124 28.3143 15.148 34.1257C14.0321 35.1607 12.9575 36.274 11.93 37.4631C13.8847 39.7732 16.0593 41.7697 18.389 43.4462C19.8236 44.4792 21.3164 45.3904 22.8524 46.1797L20.3259 48.7546C18.9901 48.0186 17.6879 47.1965 16.4271 46.2888C13.4775 44.1661 10.7551 41.5769 8.37021 38.5328C7.83773 37.8491 7.89054 36.8837 8.45856 36.2651ZM54.1085 18L56.9381 20.8837L21.5013 57L18.6713 54.1153L54.1085 18ZM54.92 26.6168C57.0437 27.8534 59.1294 29.3219 61.159 31.0277C63.0206 32.5917 64.825 34.342 66.5559 36.2808C67.1143 36.9057 67.1417 37.8325 66.6644 38.4863C64.6809 41.3411 62.4026 43.779 59.9092 45.8083C53.6711 50.8832 46.0939 53.3818 38.4183 53.417C35.4827 53.4303 33.7138 51.88 30.82 51.1778L32.5221 49.4441C34.4739 49.7891 36.4435 49.9574 38.4049 49.9486C45.3291 49.9173 52.1625 47.6644 57.7865 43.088C59.7061 41.5265 61.4865 39.6925 63.0815 37.581C61.7434 36.1595 60.3797 34.8686 58.9964 33.7064C56.8574 31.909 54.655 30.3989 52.4151 29.1687L54.92 26.6168ZM37.5003 26.8781C38.7794 26.8781 40.0047 27.1135 41.1379 27.5431L38.4063 30.327C38.1091 30.2883 37.8071 30.2688 37.5007 30.2688C35.5413 30.2688 33.7676 31.0781 32.4837 32.3866C31.1998 33.6951 30.4056 35.5032 30.4056 37.5002C30.4056 37.8129 30.4248 38.1207 30.4627 38.4227L27.7312 41.2075C27.3091 40.0531 27.0787 38.8039 27.0787 37.5002C27.0787 34.5666 28.2454 31.912 30.1314 29.9893C32.017 28.0667 34.6223 26.8781 37.5003 26.8781ZM47.4263 34.254C47.748 35.2767 47.9218 36.3679 47.9218 37.5002C47.9218 40.4334 46.7551 43.0885 44.8696 45.0107C42.9831 46.9328 40.3778 48.1214 37.5003 48.1214C36.3897 48.1214 35.3194 47.9447 34.3154 47.6159L37.155 44.7219C37.2693 44.7278 37.3845 44.7308 37.5003 44.7308C39.4597 44.7308 41.2334 43.9224 42.5173 42.6139C43.8012 41.3054 44.5954 39.4972 44.5954 37.5007C44.5954 37.3828 44.5925 37.2659 44.5867 37.1484L47.4263 34.254Z" fill="white"/>
</g>
<defs>
<clipPath id="clip0_168_6">
<rect width="59" height="39" fill="white" transform="translate(8 18)"/>
</clipPath>
</defs>
</svg>
