<!--?xml version="1.0" encoding="utf-8"?-->
<!-- Generator: Adobe Illustrator 18.1.1, SVG Export Plug-In . SVG Version: 6.00 Build 0)  -->

<svg version="1.1" id="_x32_" xmlns="http://www.w3.org/2000/svg" xmlns:xlink="http://www.w3.org/1999/xlink" x="0px" y="0px" viewBox="0 0 512 512" style="width: 64px; height: 64px; opacity: 1;" xml:space="preserve">
<style type="text/css">
	.st0{fill:#4B4B4B;}
</style>
<g>
	<path class="st0" d="M176.594,31.866h158.812c6.414,0,11.613-5.2,11.613-11.613v-8.64C347.019,5.2,341.819,0,335.406,0H176.594
		c-6.413,0-11.613,5.2-11.613,11.613v8.64C164.981,26.666,170.181,31.866,176.594,31.866z" style="fill: rgb(255, 130, 130);"></path>
	<rect x="197.1" y="43.239" class="st0" width="23.073" height="70.546" style="fill: rgb(255, 130, 130);"></rect>
	<rect x="291.826" y="43.239" class="st0" width="23.073" height="70.546" style="fill: rgb(255, 130, 130);"></rect>
	<path class="st0" d="M350.066,125.165H161.934c-30.993,0-56.119,25.126-56.119,56.119v249.57c0,27.1,19.206,49.712,44.752,54.966
		v16.853c0,5.153,4.174,9.326,9.326,9.326h6.214c5.146,0,9.326-4.173,9.326-9.326v-15.7h161.124v15.7
		c0,5.153,4.174,9.326,9.327,9.326h6.213c5.146,0,9.326-4.173,9.326-9.326v-16.853c25.546-5.254,44.76-27.867,44.76-54.966v-249.57
		C406.185,150.291,381.058,125.165,350.066,125.165z M177.981,417.168c0,4.227-3.42,7.646-7.634,7.646
		c-4.226,0-7.646-3.42-7.646-7.646V212.684c0-4.226,3.42-7.646,7.646-7.646c4.213,0,7.634,3.42,7.634,7.646V417.168z
		 M235.087,417.168c0,4.227-3.42,7.646-7.64,7.646c-4.22,0-7.64-3.42-7.64-7.646V212.684c0-4.226,3.42-7.646,7.64-7.646
		c4.22,0,7.64,3.42,7.64,7.646V417.168z M292.186,417.168c0,4.227-3.419,7.646-7.633,7.646c-4.227,0-7.646-3.42-7.646-7.646V212.684
		c0-4.226,3.42-7.646,7.646-7.646c4.214,0,7.633,3.42,7.633,7.646V417.168z M349.292,417.168c0,4.227-3.42,7.646-7.64,7.646
		c-4.22,0-7.64-3.42-7.64-7.646V212.684c0-4.226,3.42-7.646,7.64-7.646c4.22,0,7.64,3.42,7.64,7.646V417.168z" style="fill: rgb(255, 130, 130);"></path>
</g>
</svg>
