<!--?xml version="1.0" encoding="utf-8"?-->
<!-- Generator: Adobe Illustrator 15.1.0, SVG Export Plug-In . SVG Version: 6.00 Build 0)  -->

<svg version="1.1" id="_x32_" xmlns="http://www.w3.org/2000/svg" xmlns:xlink="http://www.w3.org/1999/xlink" x="0px" y="0px" width="512px" height="512px" viewBox="0 0 512 512" style="width: 64px; height: 64px;" xml:space="preserve">
<style type="text/css">

	.st0{fill:#4B4B4B;}

</style>
<g>
	<path class="st0" d="M346.313,288.5c1.094-4.125,2.031-8.656,2.688-12.219c0.031-0.063,0.031-0.125,0.031-0.172
		c3.031-0.734,5.75-2.109,8.094-3.797c5.25-3.813,9.031-9.063,12.125-14.563c3.063-5.516,5.328-11.344,6.844-16.5
		c1.125-3.938,1.719-7.484,1.719-10.781c0-3.531-0.719-6.859-2.188-9.688c-1.078-2.125-2.578-3.938-4.219-5.281
		c-0.219-0.188-0.438-0.313-0.656-0.469l-1.063-43.594c0.313-1.25,0.469-2.531,0.469-3.797h-8.938v-0.672H149.813v0.672h-7.781
		c0,0.281,0.047,0.563,0.063,0.859l-0.656-0.281l-1.156,46.813c-1.625,1.219-3.141,2.75-4.313,4.719
		c-1.844,3.031-2.75,6.75-2.75,10.719c0,3.297,0.594,6.844,1.719,10.781c2.031,6.891,5.344,14.938,10.188,21.875
		c2.438,3.453,5.281,6.656,8.781,9.188c2.344,1.688,5.063,3.063,8.094,3.797c0.219,1.234,0.484,2.578,0.781,4
		c0.563,2.703,1.219,5.641,1.938,8.391c0.766,2.797,1.531,5.344,2.625,7.719c6.281,13.328,14.25,23.813,22.797,31.891
		c12.828,12.141,26.953,18.891,38.891,22.609c11.969,3.703,21.719,4.406,26.484,4.422c3.203,0,8.547-0.328,15.359-1.641
		c10.172-1.953,23.563-6.141,36.875-14.969c13.313-8.781,26.5-22.297,35.938-42.313C344.781,293.844,345.547,291.297,346.313,288.5z
		 M335,267.719l-0.031,0.172c-0.141,0.922-0.875,5.297-1.875,10.078c-0.5,2.406-1.078,4.875-1.656,7.031
		c-0.578,2.125-1.219,3.969-1.594,4.688c-5.469,11.656-12.25,20.5-19.453,27.313c-10.797,10.234-22.734,15.953-32.922,19.125
		s-18.688,3.75-21.953,3.75c-2.172,0-6.703-0.25-12.453-1.375c-8.672-1.656-20.125-5.266-31.344-12.688
		c-11.234-7.469-22.297-18.656-30.531-36.125c-0.391-0.781-1.094-2.813-1.688-5.125c-0.953-3.5-1.844-7.781-2.469-11.125
		c-0.313-1.672-0.563-3.109-0.75-4.125c-0.063-0.516-0.141-0.922-0.188-1.188l-0.063-0.406l-1.188-7.469l-7.484,1.109l-0.688,0.047
		c-1.031,0-2.203-0.344-3.844-1.5c-2.422-1.688-5.328-5.281-7.703-9.594c-2.375-4.281-4.313-9.203-5.5-13.328
		c-0.844-2.891-1.125-5.047-1.125-6.516c0-1.594,0.297-2.344,0.469-2.688l0.438-0.531c0.25-0.219,0.75-0.5,1.563-0.719
		c0.813-0.188,1.844-0.297,2.75-0.297c0.719,0,1.359,0.047,1.781,0.109l0.438,0.063h0.031l6.531,1.297
		c0.781,1.297,1.594,2.734,2.406,4.359c0.906-8.563,2.844-24.984,4.313-37.094c20.922,9.094,52.063,14.875,86.875,14.875
		c34.203,0,64.875-5.578,85.781-14.406c1.438,12.063,3.359,28.172,4.25,36.625c0.813-1.625,1.625-3.063,2.406-4.344l6.547-1.313
		h0.016c0.234-0.047,1.156-0.172,2.219-0.172c0.813,0,1.719,0.078,2.469,0.234c0.563,0.125,1.031,0.297,1.359,0.469
		c0.5,0.25,0.641,0.406,0.844,0.719c0.172,0.313,0.516,1,0.547,2.813c0,1.469-0.281,3.641-1.125,6.516
		c-1.578,5.5-4.531,12.422-8.016,17.359c-1.734,2.469-3.578,4.422-5.188,5.563c-1.641,1.156-2.828,1.5-3.844,1.5l-0.672-0.047
		l-7.5-1.125L335,267.719z" style="fill: rgb(223, 86, 86);"></path>
	<path class="st0" d="M142.031,136.469v17.484h228.125v-18.109c26.844-11.531,43.359-24.625,43.359-45.375
		C413.516,47.563,343.031,0,256.094,0S98.688,47.563,98.688,90.469C98.688,111.219,115.188,125.188,142.031,136.469z
		 M256.094,56.844c20.781,0,37.656,16.844,37.656,37.625c0,20.797-16.875,37.656-37.656,37.656s-37.625-16.859-37.625-37.656
		C218.469,73.688,235.313,56.844,256.094,56.844z" style="fill: rgb(223, 86, 86);"></path>
	<polygon class="st0" points="269.063,114.438 277.078,89.766 256.094,74.516 235.125,89.766 243.125,114.438 	" style="fill: rgb(223, 86, 86);"></polygon>
	<path class="st0" d="M217.063,231.953c-4.75,0-8.594,3.844-8.594,8.594s3.844,8.594,8.594,8.594s8.594-3.844,8.594-8.594
		S221.813,231.953,217.063,231.953z" style="fill: rgb(223, 86, 86);"></path>
	<path class="st0" d="M295.375,231.953c-4.75,0-8.594,3.844-8.594,8.594s3.844,8.594,8.594,8.594s8.594-3.844,8.594-8.594
		S300.125,231.953,295.375,231.953z" style="fill: rgb(223, 86, 86);"></path>
	<path class="st0" d="M443.844,465.703c0,0-5.5-36.375-8.563-42.672c-2.719-5.578-86.438-54.313-105.219-65.203L276.844,460.75
		l-8.813-51.188l15.063-14.609l-10.531-19.922H256h-16.563l-10.547,19.922l15.063,14.609l-8.797,51.188l-53.219-102.922
		c-18.781,10.891-102.5,59.625-105.219,65.203c-3.063,6.297-8.563,42.672-8.563,42.672c-1.469,7.234,0.219,14.734,4.625,20.641
		s11.094,9.672,18.438,10.344c0,0,41.531,15.313,164.781,15.313s164.781-15.313,164.781-15.313
		c7.344-0.672,14.031-4.438,18.438-10.344S445.313,472.938,443.844,465.703z" style="fill: rgb(223, 86, 86);"></path>
</g>
</svg>
